<?xml version="1.0" encoding="iso-8859-1"?>
<!-- Generator: Adobe Illustrator 19.0.0, SVG Export Plug-In . SVG Version: 6.00 Build 0)  -->
<svg version="1.1" id="Capa_1" xmlns="http://www.w3.org/2000/svg" xmlns:xlink="http://www.w3.org/1999/xlink" x="0px" y="0px"
	 viewBox="0 0 512 512" style="enable-background:new 0 0 512 512;" xml:space="preserve">
<path style="fill:#333333;" d="M512,256c0,25.318-3.678,49.779-10.522,72.882C470.089,434.761,372.067,512,256,512
	c-101.136,0-188.573-58.65-230.16-143.788C9.289,334.326,0,296.249,0,256c0-36.342,7.576-70.917,21.222-102.222
	C60.688,63.269,150.956,0,256,0c118.627,0,218.405,80.677,247.453,190.161C509.032,211.174,512,233.242,512,256z"/>
<g>
	<path style="fill:#F2F2F2;" d="M155.523,153.778v214.434H95.963v-83.393H59.559v83.393H25.84C9.289,334.326,0,296.249,0,256
		V153.778h59.559v78.754h36.404v-78.754L155.523,153.778L155.523,153.778z"/>
	<circle style="fill:#F2F2F2;" cx="419.6" cy="258.341" r="43.018"/>
	<circle style="fill:#F2F2F2;" cx="419.6" cy="258.341" r="43.018"/>
	<path style="fill:#F2F2F2;" d="M419.6,215.322c-23.761,0-43.018,19.268-43.018,43.018c0,23.761,19.257,43.018,43.018,43.018
		c23.761,0,43.018-19.257,43.018-43.018C462.618,234.59,443.361,215.322,419.6,215.322z M419.6,215.322
		c-23.761,0-43.018,19.268-43.018,43.018c0,23.761,19.257,43.018,43.018,43.018c23.761,0,43.018-19.257,43.018-43.018
		C462.618,234.59,443.361,215.322,419.6,215.322z M503.453,190.161c-19.822-24.346-50.019-39.894-83.853-39.894
		c-43.395,0-80.781,25.579-97.991,62.474c0.01-0.47,0.042-0.909,0.042-1.39c0-41.033-40.835-57.574-61.482-57.574h-94.72v214.434
		h55.599c0,0,22.497,0,41.691,0s59.57-19.853,59.57-60.886c0-0.679-0.031-1.317-0.052-1.964
		c17.481,36.133,54.502,61.064,97.343,61.064c32.726,0,62.056-14.555,81.878-37.543C508.322,305.779,512,281.318,512,256
		C512,233.242,509.032,211.174,503.453,190.161z M248.519,317.649h-27.47v-36.404h27.47c5.016,0,9.561,2.038,12.863,5.329
		c3.291,3.302,5.329,7.858,5.329,12.873C266.71,309.488,258.56,317.649,248.519,317.649z M248.519,237.829h-27.47v-36.404h27.47
		c5.016,0,9.561,2.038,12.863,5.339c3.291,3.291,5.329,7.847,5.329,12.863C266.71,229.679,258.56,237.829,248.519,237.829z
		 M289.876,259.009c0,0,13.343-2.8,22.747-15.924c-0.721,4.984-1.108,10.073-1.108,15.256c0,5.684,0.439,11.243,1.285,16.687
		C303.229,262.029,289.876,259.009,289.876,259.009z M419.6,312.163c-29.717,0-53.823-24.106-53.823-53.823
		c0-29.717,24.106-53.812,53.823-53.812c29.717,0,53.812,24.095,53.812,53.812C473.412,288.057,449.317,312.163,419.6,312.163z
		 M419.6,215.322c-23.761,0-43.018,19.268-43.018,43.018c0,23.761,19.257,43.018,43.018,43.018
		c23.761,0,43.018-19.257,43.018-43.018C462.618,234.59,443.361,215.322,419.6,215.322z M419.6,215.322
		c-23.761,0-43.018,19.268-43.018,43.018c0,23.761,19.257,43.018,43.018,43.018c23.761,0,43.018-19.257,43.018-43.018
		C462.618,234.59,443.361,215.322,419.6,215.322z M419.6,215.322c-23.761,0-43.018,19.268-43.018,43.018
		c0,23.761,19.257,43.018,43.018,43.018c23.761,0,43.018-19.257,43.018-43.018C462.618,234.59,443.361,215.322,419.6,215.322z"/>
</g>
<g>
</g>
<g>
</g>
<g>
</g>
<g>
</g>
<g>
</g>
<g>
</g>
<g>
</g>
<g>
</g>
<g>
</g>
<g>
</g>
<g>
</g>
<g>
</g>
<g>
</g>
<g>
</g>
<g>
</g>
</svg>
