<?xml version="1.0" encoding="iso-8859-1"?>
<!-- Generator: Adobe Illustrator 19.0.0, SVG Export Plug-In . SVG Version: 6.00 Build 0)  -->
<svg version="1.1" id="Capa_1" xmlns="http://www.w3.org/2000/svg" xmlns:xlink="http://www.w3.org/1999/xlink" x="0px" y="0px"
	 viewBox="0 0 512 512" style="enable-background:new 0 0 512 512;" xml:space="preserve">
<path style="fill:#00DFC1;" d="M165.498,90.502C74.242,90.502,0,164.744,0,256s74.242,165.498,165.498,165.498
	S330.997,347.256,330.997,256S256.755,90.502,165.498,90.502z"/>
<path style="fill:#FF7A53;" d="M512,256c0,91.26-74.24,165.5-165.5,165.5c-33.37,0-64.47-9.93-90.5-27
	c-45.13-29.58-75-80.62-75-138.5s29.87-108.92,75-138.5c26.03-17.07,57.13-27,90.5-27C437.76,90.5,512,164.74,512,256z"/>
<path style="fill:#CAE8F9;" d="M331,256c0,5.06-0.23,10.06-0.68,15c-1.12,12.45-3.63,24.5-7.37,36c-3.4,10.5-7.83,20.54-13.17,30
	c-13.07,23.21-31.58,42.95-53.78,57.5c-22.2-14.55-40.71-34.29-53.78-57.5c-5.34-9.46-9.77-19.5-13.17-30
	c-3.74-11.5-6.25-23.55-7.37-36c-0.45-4.94-0.68-9.94-0.68-15s0.23-10.06,0.68-15c1.12-12.45,3.63-24.5,7.37-36
	c3.4-10.5,7.83-20.54,13.17-30c13.07-23.21,31.58-42.95,53.78-57.5c22.2,14.55,40.71,34.29,53.78,57.5c5.34,9.46,9.77,19.5,13.17,30
	c3.74,11.5,6.25,23.55,7.37,36C330.77,245.94,331,250.94,331,256z"/>
<path style="fill:#B8E0F8;" d="M331,256c0,5.06-0.23,10.06-0.68,15c-1.12,12.45-3.63,24.5-7.37,36c-3.4,10.5-7.83,20.54-13.17,30
	c-13.07,23.21-31.58,42.95-53.78,57.5v-277c22.2,14.55,40.71,34.29,53.78,57.5c5.34,9.46,9.77,19.5,13.17,30
	c3.74,11.5,6.25,23.55,7.37,36C330.77,245.94,331,250.94,331,256z"/>
<g>
	<path style="fill:#00DFC1;" d="M322.95,205h-133.9c3.4-10.5,7.83-20.54,13.17-30h107.56C315.12,184.46,319.55,194.5,322.95,205z"/>
	<path style="fill:#00DFC1;" d="M331,256c0,5.06-0.23,10.06-0.68,15H181.68c-0.45-4.94-0.68-9.94-0.68-15s0.23-10.06,0.68-15h148.64
		C330.77,245.94,331,250.94,331,256z"/>
	<path style="fill:#00DFC1;" d="M322.95,307c-3.4,10.5-7.83,20.54-13.17,30H202.22c-5.34-9.46-9.77-19.5-13.17-30H322.95z"/>
</g>
<g>
	<path style="fill:#00AF98;" d="M256,307h66.95c-3.4,10.5-7.83,20.54-13.17,30H256V307z"/>
	<path style="fill:#00AF98;" d="M322.95,205H256v-30h53.78C315.12,184.46,319.55,194.5,322.95,205z"/>
	<path style="fill:#00AF98;" d="M331,256c0,5.06-0.23,10.06-0.68,15H256v-30h74.32C330.77,245.94,331,250.94,331,256z"/>
</g>
<g>
</g>
<g>
</g>
<g>
</g>
<g>
</g>
<g>
</g>
<g>
</g>
<g>
</g>
<g>
</g>
<g>
</g>
<g>
</g>
<g>
</g>
<g>
</g>
<g>
</g>
<g>
</g>
<g>
</g>
</svg>
